<?xml version="1.0" encoding="UTF-8"?>
<svg version="1.1" viewBox="0 0 1604.1533 1109.8041" xmlns="http://www.w3.org/2000/svg" xmlns:xlink="http://www.w3.org/1999/xlink">
 <defs>
  <filter id="r" color-interpolation-filters="sRGB">
   <feGaussianBlur stdDeviation="11.70421"/>
  </filter>
  <filter id="w" color-interpolation-filters="sRGB">
   <feGaussianBlur stdDeviation="10.20534"/>
  </filter>
  <filter id="u" x="-.06" y="-.13" width="1.13" height="1.25" color-interpolation-filters="sRGB">
   <feGaussianBlur stdDeviation="14.56947"/>
  </filter>
  <filter id="t" x="-.04" y="-.13" width="1.07" height="1.27" color-interpolation-filters="sRGB">
   <feGaussianBlur stdDeviation="13.99753"/>
  </filter>
  <filter id="s" x="-.04" y="-.11" width="1.09" height="1.23" color-interpolation-filters="sRGB">
   <feGaussianBlur stdDeviation="17.76938"/>
  </filter>
  <filter id="x" x="-.04" y="-.16" width="1.08" height="1.33" color-interpolation-filters="sRGB">
   <feGaussianBlur stdDeviation="10.40622"/>
  </filter>
  <filter id="v" x="-.03" width="1.05" color-interpolation-filters="sRGB">
   <feGaussianBlur stdDeviation="10.04744"/>
  </filter>
  <linearGradient id="a">
   <stop stop-color="#fff" offset="0"/>
   <stop stop-color="#fff" stop-opacity="0" offset="1"/>
  </linearGradient>
  <linearGradient id="b">
   <stop stop-color="#618ce6" offset="0"/>
   <stop stop-color="#4270cc" offset=".12308"/>
   <stop stop-color="#335eb5" offset=".23778"/>
   <stop stop-color="#153b88" offset=".58813"/>
   <stop stop-color="#04215c" offset="1"/>
  </linearGradient>
  <linearGradient id="q" x2="0" y1="900.43" y2="880.42" gradientUnits="userSpaceOnUse" xlink:href="#a"/>
  <mask id="p">
   <path d="m1779.4 880.47h1603.4a1.2778 1.278 0 0 1 1.2778 1.278v320.97a1.2778 1.278 0 0 1 -1.2778 1.278h-1603.4a1.2778 1.278 0 0 1 -1.2778 -1.278v-320.95a1.2778 1.278 0 0 1 1.2778 -1.278" fill="url(#q)"/>
  </mask>
  <clipPath id="y">
   <rect x="3.8859" y="244.09" width="1604.2" height="1109.8" fill="#CCC"/>
  </clipPath>
  <radialGradient id="o" cx="1980.4" cy="722.58" r="803" gradientTransform="matrix(2.4402 4.7661e-7 0 .93665 -4654.9 168.2)" gradientUnits="userSpaceOnUse">
   <stop stop-color="#417fd9" offset="0"/>
   <stop stop-color="#215aa5" offset=".3186"/>
   <stop stop-color="#002a7d" offset="1"/>
  </radialGradient>
  <radialGradient id="n" cx="1965" cy="1154.4" r="803" gradientTransform="matrix(2.2539 4.2927e-7 0 .34816 -4303.8 -1263.9)" gradientUnits="userSpaceOnUse">
   <stop stop-color="#bab5cc" offset="0"/>
   <stop stop-color="#9fa2b3" offset=".15245"/>
   <stop stop-color="#5b7bad" stop-opacity="0" offset="1"/>
  </radialGradient>
  <radialGradient id="m" cx="1954.2" cy="1056.5" r="803" gradientTransform="matrix(3.5497 0 1.0443e-7 .47748 -5055.5 376.02)" gradientUnits="userSpaceOnUse">
   <stop stop-color="#90b2f2" offset="0"/>
   <stop stop-color="#5a83d4" offset=".16017"/>
   <stop stop-color="#1b589d" offset=".46803"/>
   <stop stop-color="#133d6d" offset="1"/>
  </radialGradient>
  <radialGradient id="l" cx="354.73" cy="849.73" r="403.86" gradientTransform="matrix(1.8861 -.11124 .02424 .41098 -237.71 592.95)" gradientUnits="userSpaceOnUse" xlink:href="#a"/>
  <radialGradient id="k" cx="503.01" cy="747.16" r="377.24" gradientTransform="matrix(1.386 -.15994 .049537 .42927 -277.03 696.71)" gradientUnits="userSpaceOnUse" xlink:href="#a"/>
  <radialGradient id="j" cx="1406.1" cy="734.75" r="230" fx="1442.3" fy="842.62" gradientTransform="matrix(.16997 .63432 -1.4075 .37714 3996.2 -423.01)" gradientUnits="userSpaceOnUse" xlink:href="#a"/>
  <radialGradient id="i" cx="2053.7" cy="358.26" r="807" gradientTransform="matrix(2.4876 0 0 .28384 -4848.9 781.57)" gradientUnits="userSpaceOnUse" xlink:href="#b"/>
  <radialGradient id="h" cx="2520" cy="-116.02" r="807" gradientTransform="matrix(-2.4051 0 0 .36119 6250.8 869.34)" gradientUnits="userSpaceOnUse" xlink:href="#b"/>
  <radialGradient id="g" cx="2441.2" cy="515.88" r="221.84" gradientTransform="matrix(1.8021 -3.7931e-6 -1.2729e-6 .96714 -1591.9 160.3)" gradientUnits="userSpaceOnUse" xlink:href="#a"/>
  <radialGradient id="f" cx="79.6" cy="2188" r="807" gradientTransform="matrix(0 -.36686 1.5865 0 -3134.8 1386.1)" gradientUnits="userSpaceOnUse">
   <stop stop-color="#174c99" offset="0"/>
   <stop stop-color="#174c99" stop-opacity="0" offset="1"/>
  </radialGradient>
  <radialGradient id="e" cx="198.53" cy="625.17" r="410.21" fx="136.82" fy="613.54" gradientTransform="matrix(3.2425 .37929 -.041633 .31862 -111.27 698.78)" gradientUnits="userSpaceOnUse" xlink:href="#a"/>
  <radialGradient id="d" cx="225.29" cy="703.75" r="374.01" gradientTransform="matrix(2.358 .080847 -.022501 .32137 -291.32 697.29)" gradientUnits="userSpaceOnUse" xlink:href="#a"/>
  <radialGradient id="c" cx="179.75" cy="848.37" r="284.62" gradientTransform="matrix(2.1012 2.8705e-5 0 .41508 -197.84 610.32)" gradientUnits="userSpaceOnUse" xlink:href="#a"/>
 </defs>
 <g transform="translate(-3.8859 -244.09)" clip-path="url(#y)">
  <path d="m3.1778 242h1603.4a1.2778 1.278 0 0 1 1.2778 1.278v1095.4a1.2778 1.278 0 0 1 -1.2778 1.278h-1603.4a1.2778 1.278 0 0 1 -1.2778 -1.3v-1095.4a1.2778 1.278 0 0 1 1.2778 -1.278" fill="url(#o)"/>
  <path transform="scale(1,-1)" d="m1.9-890h1606v439.53h-1606z" fill="url(#n)"/>
  <path transform="matrix(1 0 0 1.068 -1776.3 -83.872)" d="m1779.4 880.47h1603.4a1.2778 1.1966 0 0 1 1.2778 1.1966v321.13a1.2778 1.1966 0 0 1 -1.2 1.1967h-1603.5a1.2778 1.1966 0 0 1 -1.2778 -1.1967v-321.13a1.2778 1.1966 0 0 1 1.2778 -1.1966" fill="url(#m)" mask="url(#p)"/>
  <g opacity=".55026">
   <path transform="matrix(.47855 0 0 .47855 910.47 383.42)" d="m65.05 1010.5c4.75-7.35 6.81-41.9 14.15-56.57 6.7-13.4 36.19 12.1 39.59 14.14 18.76 11.25 29.91 15.35 45.26 0 11.92-11.93 28.63-8.49 45.25-8.49 4.26 0-1.4-38.54 14.15-42.42 19.22-4.81 35.69 5.65 53.74 5.65 25.79 0 20.07 27.19 31.11-16.97 4.71-18.84 12.35-18.64 28.28-22.62 10.79-2.7 36.54 28.05 45.26 36.77 14.76 14.75 21.3 19.79 42.42 19.79 31.34 0 30.21-4.69 56.57 8.49 26.68 13.34 19.62 37.61 50.91 14.14 19.33-14.49 30.65-22.94 45.26-42.42 10.04-13.39 7.81-30.21 16.97-42.43 10.6-14.13 35.79-7.53 50.91-11.31 21.12-5.28 25.46-22.54 25.46-42.43 0-19.26 37.54-14.14 50.91-14.14 12.61 0 36.99 25.68 42.43 31.11 11.46 11.47 18.24 22.44 31.11 39.6 12.39 16.52 17.21 27.66 28.28 42.42 5.05 6.74 35.41 12.33 45.26 25.46 11.99 15.99-2.83 33.94-14.15 45.25-18.68 18.69-64.96-5.74-87.68 16.98-17.75 17.75-37.69 21.02-53.74 42.42-12.93 17.25-23.98 31.04-36.77 48.09-15.53 20.71-34.99 19.79-59.39 19.79-44.37 0-103.21-28.63-147.08-39.59-27.73-6.94-61.52-2.83-90.51-2.83h-99c-32.96 0-73.88 4.86-104.65-2.83-24-6-35.97-11.19-50.91-31.11-9.33-12.45-29.18-19.32-42.43-22.63-13.06-3.27-12.36 7.1-16.97-11.31z" fill="url(#l)" filter="url(#s)" opacity=".62434"/>
   <path transform="matrix(-.47794 .01907 .02409 .37833 1327.7 468.46)" d="m98.99 1089.7c21.89-41.77 73.71-25.75 104.43-61.83 20.46-24.02-0.82-53.38 51.14-56.96 39.01-2.69 55.53-23.33 84.95 18.26 38.67 54.68 88.9-15.67 123.93-45.2 47.23-39.83 40.28 80.18 112.02 63.71 38.06-8.74 4.07-63.52 44.55-22.89 34.6 34.73 130.27-1.46 134.46 39.87 6.43 63.38 100.21 61.72 86.36 96.73-21.27 53.75-658.78 0.93-726.54-3.4-31.55-2.02-27.99-4.07-15.3-28.29z" fill="url(#k)" filter="url(#t)" opacity=".51323"/>
  </g>
  <path transform="matrix(1.0174 0 0 1.0174 -1843.6 -15.763)" d="m3e3 880c8-18 26-38 48-32s26 0 32-8 8-26 16-28 42 2 42 2-4-20 2-32 30-16 48-16 38-28 48-34 26-4 40-4 36 8 44-2 24-28 32-34 38-20 42-12 6 32 14 42 22 50 22 50l-2 136-456-6 28-22z" fill="url(#j)" filter="url(#u)" opacity=".55026"/>
  <path d="m-2.1 859.25c16.75-9.75 56 38 67 40s52 7 58 9 34-13 40-13 18-4 22-6 7-10.5 17-11 12 8 23 9 27.09 2.45 40 7c8.15 2.88 6.96 5.78 11 8.41 6.43 4.18 4-11.41 13-7.41s2.75 8 16 3 28-22 37-23 30 11 38 12 40-14 49-14 25.75 4.75 46 4 25-10 35-7 15.25 6.5 25 9 18.5-2 19.5 4 14.25 8.75 26.5 10 10-10 17-8 37 20 46 19 5-9 14-7 11 9 20 10 24-5 35-5 27-8 32-12 46-15 54-16 45-5 60-10 74.79-18.24 87.52-15.41c12.41 2.76 38.48 40.41 58.48 41.41s69 4 77-2 69-21 77-14 52-8 57-9c1.89-0.37 37.34 1.93 42.16 14.05 6.28 15.81 46.73 28.81 78.22 31.45 25.44 2.13 57.9 19.39 117.6 1.36 8.87-2.67 51.7-17.7 80-12.6 17.15 3.09 65.29-1.51 78.02 5.02v301.72h-1614v-347z" fill="url(#i)"/>
  <path d="m1611.9 934.72c-16.75-7.46-56 29.08-67 30.61s-52 5.35-58 6.88c-6 1.54-34-9.94-40-9.94s-18-3.06-22-4.59c-4-1.54-7-8.04-17-8.42-10-0.39-12 6.12-23 6.88-11 0.77-27.09 1.87-40 5.36-8.15 2.2-6.95 4.42-11 6.43-6.43 3.2-4-8.72-13-5.66s-2.75 6.12-16 2.29c-13.25-3.82-28-16.83-37-17.6-9-0.76-30 8.42-38 9.18-8 0.77-40-10.71-49-10.71s-25.75 3.64-46 3.06c-20.25-0.57-25-7.65-35-5.35-10 2.29-15.25 4.97-25 6.88-9.75 1.92-18.5-1.53-19.5 3.06-1 4.6-14.25 6.7-26.5 7.66-12.25 0.95-10-7.66-17-6.13s-37 15.31-46 14.54c-9-0.76-5-6.88-14-5.35s-11 6.88-20 7.65c-9 0.76-24-3.83-35-3.83s-27-6.12-32-9.18-46-11.48-54-12.24c-8-0.77-45-3.83-60-7.66-15-3.82-74.79-13.95-87.51-11.79-12.42 2.11-38.49 30.93-58.49 31.69-20 0.77-69 3.06-77-1.53s-69-16.07-77-10.71c-8 5.35-52-6.13-57-6.89-1.89-0.29-37.34 1.47-42.16 10.75-6.28 12.1-46.73 22.04-78.22 24.06-25.44 1.63-57.9 14.84-117.6 1.05-8.87-2.05-51.7-13.55-80-9.65-17.15 2.37-65.29-1.15-78.02 3.85v387.49h1614v-422.18z" fill="url(#h)"/>
  <path transform="matrix(.71927 0 0 .71927 -633.27 268.83)" d="m2706 842c4-14 21.51-17.27 27.51-35.27 16.54-35.34 58.06-28.44 86.73-20.63 14 4 39.76 7.9 51.76-2.1s62 8 64-26 4-68 26-68 38-16 46-38 26-30 44-16 38 44 44 60-6 170-6 170l-436-2s32-18 52-22z" fill="url(#g)" filter="url(#r)" opacity=".55026"/>
  <path d="m1611.9 926.59c-519.8 62.11-1070.6-45.23-1614 23.96v406.31h1614v-430.31z" fill="url(#f)"/>
  <g opacity=".67841">
   <path transform="matrix(1.2209 0 0 .85775 -134.12 129.39)" d="m60.63 938c0-114.68 124.2-14.83 151.06 55.99 28.61-57.33 98.96-69.76 126.51-19.19 42.25-0.56 52.78 86.04 82.38 18.47 45.46-63.91 89.69 33.18 99.58 70.09 29.36 2.66 53.09-30.69 72.38 7.74 32.67-32.78 57.78 20.24 94.8 0.97 29.64 37.88 89.69 14.58 92.45 63.58 44.83 8.11 95.25 1.03 95.25 47.72h-818.41c-138.46-43.5-139.89-152.6 4-245.4z" fill="url(#e)" filter="url(#w)" opacity=".69312"/>
   <path transform="matrix(-1.2078 0 0 1.1706 445.39 -159.3)" d="m47.2 969.57c22.03-16.83 40.54 30.41 46.5-13.95 34.36 9.07 62.72 82.16 99.26 23.58 30.73-30.42 75.75-20.3 97.45 0.3 41.19-0.21 79.79 46.87 114.92 18.74 38.98 39.03 100.73 65.29 143.33 59.4 27.71 37.03 83.5-46.18 99.97 13.65 61.29-19.97 53.06 79.16 91.94 78.98-55.95 11.74-93.79-44.94-147.33-53.28-58.5-21.1-123.89-19.25-180.66 6.35-80.69 14.16-162.23-10.03-243.57-4.15-356.83 63.9-208.52-177.48-121.81-129.43z" fill="url(#d)" filter="url(#v)"/>
   <path transform="matrix(-.73145 0 0 .76202 566.21 266.31)" d="m-57.94 1078.3c26.95-53.54 96.36-65.39 150.33-55.78 40.74-5.58 79.89-37.52 126.09-19.89 39.47 11.41 72.89 35.27 114.5 15.87 59.54-5.42 122.24 15.03 163.74 58.83 3.75 37.83-45.25 38.15-71.45 34.16-49.11-5.18-97.93-17.92-147.56-13.62-101.54-11.41-200.29 33.66-301.61 21.85-14.65-2.38-29.03-6.71-42.36-13.29" fill="url(#c)" filter="url(#x)"/>
  </g>
 </g>
</svg>
